<?xml version="1.0" ?><!DOCTYPE svg  PUBLIC '-//W3C//DTD SVG 1.1//EN'  'http://www.w3.org/Graphics/SVG/1.1/DTD/svg11.dtd'><svg id="Layer_1" style="enable-background:new 0 0 78 78;" version="1.1" viewBox="0 0 78 78" xml:space="preserve" xmlns="http://www.w3.org/2000/svg" xmlns:xlink="http://www.w3.org/1999/xlink"><style type="text/css">
	.st0{fill:none;stroke:#000000;stroke-width:2;stroke-linecap:round;stroke-linejoin:round;stroke-miterlimit:10;}
	.st1{fill:#171715;}
	.st2{fill:#FFAC35;}
	.st3{fill:#AAC148;}
	.st4{fill:#0067FF;}
	.st5{fill:#00AEF0;}
	.st6{fill:#222A30;}
	.st7{fill:#90A358;}
	.st8{fill:#FFFFFF;}
	.st9{fill:#0074D2;}
	.st10{fill:#D4D1D1;}
	.st11{fill:#01CB3E;}
	.st12{fill:#A6285F;}
	.st13{fill:#1587EA;}
	.st14{fill:#90B24C;}
	.st15{fill:#E65300;}
	.st16{fill:#475993;}
	.st17{fill:#005DE1;}
	.st18{fill:#FF007E;}
	.st19{fill:#FF4175;}
	.st20{fill:#F34A38;}
	.st21{fill:#333F40;}
	.st22{fill:#FF9414;}
	.st23{fill:#0090E1;}
	.st24{fill:#FC490B;}
	.st25{fill:url(#XMLID_10_);}
	.st26{fill:url(#XMLID_11_);}
	.st27{fill:url(#XMLID_12_);}
	.st28{fill:#00CE62;}
	.st29{fill:#0077B7;}
	.st30{fill:#00FD8D;}
	.st31{fill:#00E470;}
	.st32{fill:#00C967;}
	.st33{fill:#00AD6C;}
	.st34{fill:#EB4427;}
	.st35{fill:#002987;}
	.st36{fill:#0085CC;}
	.st37{fill:#00186A;}
	.st38{fill:#00A4C3;}
	.st39{fill:#FF4B30;}
	.st40{fill:#9F1121;}
	.st41{fill:#2950A1;}
	.st42{fill:#CF2217;}
	.st43{fill:#0088C3;}
	.st44{fill:#FF1A03;}
	.st45{fill:#00AAF2;}
	.st46{fill:#050505;}
	.st47{fill:url(#SVGID_1_);}
	.st48{fill:url(#SVGID_2_);}
	.st49{fill:url(#SVGID_3_);}
	.st50{fill:url(#SVGID_4_);}
	.st51{fill:url(#SVGID_5_);}
	.st52{fill:url(#SVGID_6_);}
	.st53{fill:url(#SVGID_7_);}
	.st54{fill:url(#SVGID_8_);}
	.st55{fill:url(#SVGID_9_);}
	.st56{fill:url(#SVGID_10_);}
	.st57{fill:url(#SVGID_11_);}
	.st58{fill:#00D95F;}
	.st59{fill:#FF4403;}
	.st60{fill:#518FE1;}
	.st61{fill:#2A445D;}
	.st62{fill:#76A9EA;}
	.st63{fill:#69B4E5;}
	.st64{fill:#04B086;}
	.st65{fill:#7AD06D;}
	.st66{fill:#00769D;}
	.st67{fill:#DC0000;}
	.st68{fill:#F61C0D;}
</style><g><g><path class="st0" d="M31.2,42h7.2c-1.3,3.6-4.7,6.1-8.7,6.1c-4.9,0-8.9-3.9-9.1-8.8c-0.2-5.2,4-9.5,9.1-9.5c2.4,0,4.5,0.9,6.1,2.4    c0.4,0.3,1,0.4,1.3,0l2.6-2.5c0.4-0.4,0.4-1,0-1.4c-2.6-2.4-6-4-9.8-4c-8.1-0.2-15,6.5-15,14.6c-0.1,8.2,6.6,14.8,14.7,14.8    c7.9,0,14.3-6.2,14.7-13.9c0-0.1,0-3.4,0-3.4H31.2c-0.5,0-1,0.4-1,1v3.6C30.2,41.6,30.6,42,31.2,42z"/><path class="st0" d="M58.6,36.8v-3.5c0-0.5-0.4-0.9-0.9-0.9h-3c-0.5,0-0.9,0.4-0.9,0.9v3.5h-3.5c-0.5,0-0.9,0.4-0.9,0.9v3    c0,0.5,0.4,0.9,0.9,0.9h3.5V45c0,0.5,0.4,0.9,0.9,0.9h3c0.5,0,0.9-0.4,0.9-0.9v-3.5h3.5c0.5,0,0.9-0.4,0.9-0.9v-3    c0-0.5-0.4-0.9-0.9-0.9L58.6,36.8L58.6,36.8z"/></g></g><circle class="st0" cx="39" cy="39" r="36"/></svg>