<?xml version="1.0" ?><!DOCTYPE svg  PUBLIC '-//W3C//DTD SVG 1.1//EN'  'http://www.w3.org/Graphics/SVG/1.1/DTD/svg11.dtd'><svg id="Layer_1" style="enable-background:new 0 0 78 78;" version="1.1" viewBox="0 0 78 78" xml:space="preserve" xmlns="http://www.w3.org/2000/svg" xmlns:xlink="http://www.w3.org/1999/xlink"><style type="text/css">
	.st0{fill:none;stroke:#000000;stroke-width:2;stroke-linecap:round;stroke-linejoin:round;stroke-miterlimit:10;}
	.st1{fill:#171715;}
	.st2{fill:#FFAC35;}
	.st3{fill:#AAC148;}
	.st4{fill:#0067FF;}
	.st5{fill:#00AEF0;}
	.st6{fill:#222A30;}
	.st7{fill:#90A358;}
	.st8{fill:#FFFFFF;}
	.st9{fill:#0074D2;}
	.st10{fill:#D4D1D1;}
	.st11{fill:#01CB3E;}
	.st12{fill:#A6285F;}
	.st13{fill:#1587EA;}
	.st14{fill:#90B24C;}
	.st15{fill:#E65300;}
	.st16{fill:#475993;}
	.st17{fill:#005DE1;}
	.st18{fill:#FF007E;}
	.st19{fill:#FF4175;}
	.st20{fill:#F34A38;}
	.st21{fill:#333F40;}
	.st22{fill:#FF9414;}
	.st23{fill:#0090E1;}
	.st24{fill:#FC490B;}
	.st25{fill:url(#XMLID_10_);}
	.st26{fill:url(#XMLID_11_);}
	.st27{fill:url(#XMLID_12_);}
	.st28{fill:#00CE62;}
	.st29{fill:#0077B7;}
	.st30{fill:#00FD8D;}
	.st31{fill:#00E470;}
	.st32{fill:#00C967;}
	.st33{fill:#00AD6C;}
	.st34{fill:#EB4427;}
	.st35{fill:#002987;}
	.st36{fill:#0085CC;}
	.st37{fill:#00186A;}
	.st38{fill:#00A4C3;}
	.st39{fill:#FF4B30;}
	.st40{fill:#9F1121;}
	.st41{fill:#2950A1;}
	.st42{fill:#CF2217;}
	.st43{fill:#0088C3;}
	.st44{fill:#FF1A03;}
	.st45{fill:#00AAF2;}
	.st46{fill:#050505;}
	.st47{fill:url(#SVGID_1_);}
	.st48{fill:url(#SVGID_2_);}
	.st49{fill:url(#SVGID_3_);}
	.st50{fill:url(#SVGID_4_);}
	.st51{fill:url(#SVGID_5_);}
	.st52{fill:url(#SVGID_6_);}
	.st53{fill:url(#SVGID_7_);}
	.st54{fill:url(#SVGID_8_);}
	.st55{fill:url(#SVGID_9_);}
	.st56{fill:url(#SVGID_10_);}
	.st57{fill:url(#SVGID_11_);}
	.st58{fill:#00D95F;}
	.st59{fill:#FF4403;}
	.st60{fill:#518FE1;}
	.st61{fill:#2A445D;}
	.st62{fill:#76A9EA;}
	.st63{fill:#69B4E5;}
	.st64{fill:#04B086;}
	.st65{fill:#7AD06D;}
	.st66{fill:#00769D;}
	.st67{fill:#DC0000;}
	.st68{fill:#F61C0D;}
</style><g><g id="XMLID_1_"><g><path class="st0" d="M53.5,16.5h-29c-4.4,0-8,3.6-8,8v29c0,4.4,3.6,8,8,8h29c4.4,0,8-3.6,8-8v-29     C61.5,20.1,57.9,16.5,53.5,16.5z" id="XMLID_4_"/><path class="st0" d="M24.5,57.5c-2.2,0-4-1.8-4-4v-29c0-2.2,1.8-4,4-4h29c2.2,0,4,1.8,4,4v29c0,2.2-1.8,4-4,4H24.5z"/><path class="st0" d="M39,27.4c-6.4,0-11.6,5.2-11.6,11.6c0,6.4,5.2,11.6,11.6,11.6S50.6,45.4,50.6,39     S45.4,27.4,39,27.4z M39,46.1c-3.9,0-7.1-3.2-7.1-7.1s3.2-7.1,7.1-7.1c3.9,0,7.1,3.2,7.1,7.1C46.1,42.9,42.9,46.1,39,46.1z" id="XMLID_3_"/></g><circle cx="50.7" cy="27.4" id="XMLID_2_" r="2.2"/></g></g><circle class="st0" cx="39" cy="39" r="36"/></svg>