<?xml version="1.0" ?><!DOCTYPE svg  PUBLIC '-//W3C//DTD SVG 1.1//EN'  'http://www.w3.org/Graphics/SVG/1.1/DTD/svg11.dtd'><svg id="Layer_1" style="enable-background:new 0 0 78 78;" version="1.1" viewBox="0 0 78 78" xml:space="preserve" xmlns="http://www.w3.org/2000/svg" xmlns:xlink="http://www.w3.org/1999/xlink"><style type="text/css">
	.st0{fill:none;stroke:#000000;stroke-width:2;stroke-linecap:round;stroke-linejoin:round;stroke-miterlimit:10;}
	.st1{fill:#171715;}
	.st2{fill:#FFAC35;}
	.st3{fill:#AAC148;}
	.st4{fill:#0067FF;}
	.st5{fill:#00AEF0;}
	.st6{fill:#222A30;}
	.st7{fill:#90A358;}
	.st8{fill:#FFFFFF;}
	.st9{fill:#0074D2;}
	.st10{fill:#D4D1D1;}
	.st11{fill:#01CB3E;}
	.st12{fill:#A6285F;}
	.st13{fill:#1587EA;}
	.st14{fill:#90B24C;}
	.st15{fill:#E65300;}
	.st16{fill:#475993;}
	.st17{fill:#005DE1;}
	.st18{fill:#FF007E;}
	.st19{fill:#FF4175;}
	.st20{fill:#F34A38;}
	.st21{fill:#333F40;}
	.st22{fill:#FF9414;}
	.st23{fill:#0090E1;}
	.st24{fill:#FC490B;}
	.st25{fill:url(#XMLID_10_);}
	.st26{fill:url(#XMLID_11_);}
	.st27{fill:url(#XMLID_12_);}
	.st28{fill:#00CE62;}
	.st29{fill:#0077B7;}
	.st30{fill:#00FD8D;}
	.st31{fill:#00E470;}
	.st32{fill:#00C967;}
	.st33{fill:#00AD6C;}
	.st34{fill:#EB4427;}
	.st35{fill:#002987;}
	.st36{fill:#0085CC;}
	.st37{fill:#00186A;}
	.st38{fill:#00A4C3;}
	.st39{fill:#FF4B30;}
	.st40{fill:#9F1121;}
	.st41{fill:#2950A1;}
	.st42{fill:#CF2217;}
	.st43{fill:#0088C3;}
	.st44{fill:#FF1A03;}
	.st45{fill:#00AAF2;}
	.st46{fill:#050505;}
	.st47{fill:url(#SVGID_1_);}
	.st48{fill:url(#SVGID_2_);}
	.st49{fill:url(#SVGID_3_);}
	.st50{fill:url(#SVGID_4_);}
	.st51{fill:url(#SVGID_5_);}
	.st52{fill:url(#SVGID_6_);}
	.st53{fill:url(#SVGID_7_);}
	.st54{fill:url(#SVGID_8_);}
	.st55{fill:url(#SVGID_9_);}
	.st56{fill:url(#SVGID_10_);}
	.st57{fill:url(#SVGID_11_);}
	.st58{fill:#00D95F;}
	.st59{fill:#FF4403;}
	.st60{fill:#518FE1;}
	.st61{fill:#2A445D;}
	.st62{fill:#76A9EA;}
	.st63{fill:#69B4E5;}
	.st64{fill:#04B086;}
	.st65{fill:#7AD06D;}
	.st66{fill:#00769D;}
	.st67{fill:#DC0000;}
	.st68{fill:#F61C0D;}
</style><g><g><g><path class="st0" d="M63,39.7C63.4,26,52.3,14.8,38.6,15C25.5,15.2,14.9,26,15,39.2c0.1,9.4,5.6,17.5,13.5,21.4     c0.5,0.2,1-0.1,1-0.6c-0.1-1.5,0-3.2,0.3-4.5c0.3-1.3,1.5-6.4,2.3-9.7c0.4-1.6,0.4-3.3,0.1-4.9C32.1,40.3,32,39.7,32,39     c0-3.5,2.1-6.2,4.6-6.2c2.2,0,3.2,1.6,3.2,3.6c0,2.2-1.4,5.5-2.1,8.5c-0.6,2.5,1.3,4.6,3.8,4.6c4.5,0,8-4.8,8-11.7     c0-6.1-4.4-10.4-10.7-10.4c-7.3,0-11.5,5.4-11.5,11.1c0,2.2,0.8,4.5,1.9,5.8c0.2,0.3,0.2,0.5,0.2,0.7c-0.2,0.8-0.6,2.5-0.7,2.9     c-0.1,0.5-0.4,0.6-0.9,0.3c-3.2-1.5-5.2-6.1-5.2-9.9c0-8,5.8-15.4,16.9-15.4c8.8,0,15.7,6.3,15.7,14.7c0,8.8-5.5,15.9-13.2,15.9     c-2,0-4-0.8-5.1-2c-0.4-0.3-0.9-0.2-1.1,0.3c-0.4,1.5-1,4-1.3,4.8c-0.4,1.4-1.2,3.1-2,4.6c-0.2,0.4,0,0.9,0.4,1     c2,0.5,4,0.8,6.1,0.7C51.8,62.9,62.6,52.3,63,39.7z"/></g></g></g><circle class="st0" cx="39" cy="39" r="36"/></svg>